<?xml version="1.0" encoding="utf-8"?>
<!-- Generator: Adobe Illustrator 25.2.0, SVG Export Plug-In . SVG Version: 6.00 Build 0)  -->
<svg version="1.1" id="Layer_1" xmlns="http://www.w3.org/2000/svg" xmlns:xlink="http://www.w3.org/1999/xlink" x="0px" y="0px"
	 viewBox="0 0 24 24" style="enable-background:new 0 0 24 24;" xml:space="preserve">
<style type="text/css">
	.st0{fill:#FFFFFF;}
</style>
<path class="st0" d="M4.1,17C4,17.3,4,17.7,4,18s0,0.7,0.1,1H0v-2H4.1z M13,1h-2v5H8l4,4l4-4h-3V1z M7.1,11.7L4.2,8.8l-1.4,1.4
	l2.9,2.9C6.1,12.6,6.6,12.1,7.1,11.7z M19.9,17c0,0.3,0.1,0.7,0.1,1s0,0.7-0.1,1H24v-2H19.9z M18,18c0,0.3,0,0.7-0.1,1H6.1
	C6,18.7,6,18.3,6,18c0-3.3,2.7-6,6-6C15.3,12,18,14.7,18,18z M15.9,17c-0.4-1.7-2-3-3.9-3c-1.9,0-3.4,1.3-3.9,3H15.9z M19.8,8.8
	l-2.9,2.9c0.5,0.4,1,0.9,1.4,1.4l2.9-2.9C21.2,10.2,19.8,8.8,19.8,8.8z M24,21H0v2h24V21z"/>
</svg>
