<?xml version="1.0" encoding="utf-8"?>
<!-- Generator: Adobe Illustrator 25.2.0, SVG Export Plug-In . SVG Version: 6.00 Build 0)  -->
<svg version="1.1" id="Layer_1" xmlns="http://www.w3.org/2000/svg" xmlns:xlink="http://www.w3.org/1999/xlink" x="0px" y="0px"
	 viewBox="0 0 24 24" style="enable-background:new 0 0 24 24;" xml:space="preserve">
<style type="text/css">
	.st0{fill:#FFFFFF;}
</style>
<path class="st0" d="M17.5,2C18.3,2,19,2.7,19,3.5V11c0,1.6,0.5,2.3,1.4,3.1c1,0.9,1.6,2.1,1.6,3.4c0,2.5-2,4.5-4.5,4.5
	S13,20,13,17.5c0-1.3,0.6-2.6,1.6-3.4c0.9-0.8,1.4-1.5,1.4-3.1V3.5C16,2.7,16.7,2,17.5,2z M17.5,0C15.6,0,14,1.6,14,3.5V11
	c0,0.6-0.3,1.1-0.7,1.5c-1.4,1.2-2.3,3-2.3,5c0,3.6,2.9,6.5,6.5,6.5s6.5-2.9,6.5-6.5c0-2-0.9-3.8-2.3-4.9C21.3,12.2,21,11.6,21,11
	V3.5C21,1.6,19.4,0,17.5,0z M19.6,14.7c-1-0.9-1.6-1.7-1.6-3.2V5h-1v6.5c0,1.5-0.6,2.3-1.6,3.2c-0.8,0.7-1.4,1.6-1.4,2.8
	c0,1.9,1.6,3.5,3.5,3.5s3.5-1.6,3.5-3.5C21,16.4,20.4,15.4,19.6,14.7z M6.5,6C7.9,6,9,7.1,9,8.5S7.9,11,6.5,11S4,9.9,4,8.5
	S5.1,6,6.5,6z M6.5,5C4.6,5,3,6.6,3,8.5S4.6,12,6.5,12S10,10.4,10,8.5S8.4,5,6.5,5z M2,8.5C2,8.3,2,8.2,2.1,8H0v1h2.1
	C2,8.8,2,8.7,2,8.5z M3.7,5L2.3,3.6L1.5,4.3L3,5.7C3.2,5.4,3.4,5.2,3.7,5z M10,5.7l1.4-1.4l-0.7-0.7L9.3,5C9.6,5.2,9.8,5.4,10,5.7z
	 M6.5,4C6.7,4,6.8,4,7,4.1V2H6v2C6.2,4,6.3,4,6.5,4z M6.5,13c-0.2,0-0.3,0-0.5-0.1V15h1v-2.1C6.8,13,6.7,13,6.5,13z M10.9,8
	C11,8.2,11,8.3,11,8.5L10.9,9H13V8H10.9z M3,11.3l-1.4,1.4l0.7,0.7L3.7,12C3.4,11.8,3.2,11.6,3,11.3z M9.3,12l1.4,1.4l0.7-0.7
	L10,11.3C9.8,11.6,9.6,11.8,9.3,12z"/>
</svg>
